<?xml version="1.0" encoding="utf-8"?>
<!-- Generator: Adobe Illustrator 24.0.2, SVG Export Plug-In . SVG Version: 6.00 Build 0)  -->
<svg version="1.1" xmlns="http://www.w3.org/2000/svg" xmlns:xlink="http://www.w3.org/1999/xlink" x="0px" y="0px"
	 viewBox="0 0 24 24" style="enable-background:new 0 0 24 24;" xml:space="preserve">
<style type="text/css">
	.st0{fill:none;}
	.st1{fill:#121331;}
</style>
<g id="bounding_box">
	<rect class="st0" width="24" height="24"/>
</g>
<g id="design">
	<g>
		<path class="st1" d="M18.25,21H5.75C4.23,21,3,19.77,3,18.25v-4.5C3,13.34,3.34,13,3.75,13s0.75,0.34,0.75,0.75v4.5
			c0,0.69,0.56,1.25,1.25,1.25h12.5c0.69,0,1.25-0.56,1.25-1.25v-4.5c0-0.41,0.34-0.75,0.75-0.75S21,13.34,21,13.75v4.5
			C21,19.77,19.77,21,18.25,21z"/>
		<g>
			<path class="st1" d="M16.78,12.53l-4.25,4.25c-0.07,0.07-0.15,0.12-0.24,0.16C12.2,16.98,12.1,17,12,17s-0.2-0.02-0.29-0.06
				c-0.09-0.04-0.17-0.09-0.24-0.16l-4.25-4.25c-0.29-0.29-0.29-0.77,0-1.06c0.29-0.29,0.77-0.29,1.06,0l2.97,2.97V4.75
				C11.25,4.34,11.59,4,12,4s0.75,0.34,0.75,0.75v9.69l2.97-2.97c0.29-0.29,0.77-0.29,1.06,0C17.07,11.76,17.07,12.24,16.78,12.53z"
				/>
		</g>
	</g>
</g>
</svg>
